<?xml version="1.0" standalone="no"?><!DOCTYPE svg PUBLIC "-//W3C//DTD SVG 1.1//EN" "http://www.w3.org/Graphics/SVG/1.1/DTD/svg11.dtd"><svg t="1779760847123" class="icon" viewBox="0 0 1024 1024" version="1.1" xmlns="http://www.w3.org/2000/svg" p-id="11328" xmlns:xlink="http://www.w3.org/1999/xlink" width="200" height="200"><path d="M837.818182 1024H186.181818a186.181818 186.181818 0 0 1-186.181818-186.181818V186.181818a186.181818 186.181818 0 0 1 186.181818-186.181818h651.636364a186.181818 186.181818 0 0 1 186.181818 186.181818v651.636364a186.181818 186.181818 0 0 1-186.181818 186.181818z m-72.890182-190.836364l87.272727 47.848728-25.367272-74.845091a209.454545 209.454545 0 0 0 108.916363-177.384728c0-119.389091-114.548364-216.529455-255.348363-216.529454s-255.301818 97.140364-255.301819 216.529454 114.548364 216.482909 255.301819 216.48291a295.563636 295.563636 0 0 0 84.433454-12.148364zM395.636364 186.181818C228.770909 186.181818 93.090909 301.568 93.090909 443.438545a244.549818 244.549818 0 0 0 117.992727 203.869091l-30.254545 89.134546 100.072727-54.877091a347.136 347.136 0 0 0 114.594909 19.130182c7.819636 0 15.639273-0.232727 23.272728-0.744728a200.145455 200.145455 0 0 1-13.032728-71.074909c0-128.465455 123.252364-233.006545 274.618182-233.006545 3.956364 0 7.959273 0 12.381091 0.232727C666.251636 274.618182 541.277091 186.181818 395.636364 186.181818z m371.479272 411.648a35.746909 35.746909 0 1 1 35.793455-35.793454 35.793455 35.793455 0 0 1-35.886546 35.793454z m-166.353454 0a35.746909 35.746909 0 1 1 35.793454-35.793454 35.793455 35.793455 0 0 1-35.886545 35.793454zM499.898182 402.711273a44.637091 44.637091 0 1 1 44.637091-44.637091 44.683636 44.683636 0 0 1-44.637091 44.637091z m-207.778909 0a44.683636 44.683636 0 1 1 44.637091-44.637091 44.683636 44.683636 0 0 1-44.637091 44.637091z" fill="#07C874" p-id="11329"></path></svg>